<svg aria-hidden="true" style="position: absolute; width: 0; height: 0; overflow: hidden;" version="1.1" xmlns="http://www.w3.org/2000/svg" xmlns:xlink="http://www.w3.org/1999/xlink">
<defs>
<symbol id="github" viewBox="0 0 32 32">
<path fill="#fcfc06" style="fill: var(--color1, #fcfc06)" d="M16 0c8.837 0 16 7.344 16 16.405 0 7.246-4.579 13.394-10.933 15.565-0.811 0.162-1.099-0.35-1.099-0.787 0-0.541 0.019-2.307 0.019-4.502 0-1.53-0.512-2.528-1.086-3.037 3.563-0.406 7.307-1.794 7.307-8.094 0-1.792-0.621-3.254-1.648-4.403 0.166-0.414 0.715-2.083-0.157-4.342 0 0-1.341-0.44-4.395 1.682-1.278-0.363-2.648-0.546-4.008-0.552-1.36 0.006-2.728 0.189-4.005 0.552-3.058-2.122-4.402-1.682-4.402-1.682-0.869 2.259-0.32 3.928-0.155 4.342-1.022 1.149-1.648 2.611-1.648 4.403 0 6.285 3.736 7.693 7.29 8.107-0.458 0.41-0.872 1.133-1.016 2.194-0.912 0.419-3.229 1.144-4.656-1.363 0 0-0.846-1.576-2.453-1.691 0 0-1.56-0.021-0.109 0.997 0 0 1.048 0.504 1.776 2.4 0 0 0.939 2.928 5.39 1.936 0.008 1.371 0.022 2.664 0.022 3.054 0 0.434-0.294 0.941-1.093 0.789-6.358-2.168-10.942-8.318-10.942-15.566 0-9.061 7.165-16.405 16-16.405z"></path>
</symbol>
<symbol id="linkedin" viewBox="0 0 32 32">
<path fill="#fcfc06" style="fill: var(--color1, #fcfc06)" d="M8.667 10.667c1.105 0 2-0.895 2-2s-0.895-2-2-2c-1.105 0-2 0.895-2 2s0.895 2 2 2z"></path>
<path fill="#fcfc06" style="fill: var(--color1, #fcfc06)" d="M6.667 13.333c0-0.736 0.597-1.333 1.333-1.333h1.333c0.736 0 1.333 0.597 1.333 1.333v10.667c0 0.736-0.597 1.333-1.333 1.333h-1.333c-0.736 0-1.333-0.597-1.333-1.333v-10.667z"></path>
<path fill="#fcfc06" style="fill: var(--color1, #fcfc06)" d="M14.667 25.333h1.333c0.736 0 1.333-0.597 1.333-1.333v-6c0-2 4-3.333 4-0.667v6.667c0 0.736 0.597 1.333 1.333 1.333h1.333c0.736 0 1.333-0.597 1.333-1.333v-8c0-2.667-2-4-4.667-4s-3.333 2-3.333 2v-0.667c0-0.736-0.597-1.333-1.333-1.333h-1.333c-0.736 0-1.333 0.597-1.333 1.333v10.667c0 0.736 0.597 1.333 1.333 1.333z"></path>
<path fill="#fcfc06" style="fill: var(--color1, #fcfc06)" d="M26.667 1.333h-21.333c-2.209 0-4 1.791-4 4v21.333c0 2.209 1.791 4 4 4h21.333c2.209 0 4-1.791 4-4v-21.333c0-2.209-1.791-4-4-4zM26.667 4c0.736 0 1.333 0.597 1.333 1.333v21.333c0 0.736-0.597 1.333-1.333 1.333h-21.333c-0.736 0-1.333-0.597-1.333-1.333v-21.333c0-0.736 0.597-1.333 1.333-1.333h21.333z"></path>
</symbol>
<symbol id="medium" viewBox="0 0 32 32">
<path fill="#fcfc06" style="fill: var(--color1, #fcfc06)" d="M17.333 16c0 4.418-3.582 8-8 8s-8-3.582-8-8c0-4.418 3.582-8 8-8s8 3.582 8 8z"></path>
<path fill="#fcfc06" style="fill: var(--color1, #fcfc06)" d="M30.667 16c0 3.682-0.597 6.667-1.333 6.667s-1.333-2.985-1.333-6.667c0-3.682 0.597-6.667 1.333-6.667s1.333 2.985 1.333 6.667z"></path>
<path fill="#fcfc06" style="fill: var(--color1, #fcfc06)" d="M22.667 24c2.209 0 4-3.582 4-8s-1.791-8-4-8c-2.209 0-4 3.582-4 8s1.791 8 4 8z"></path>
</symbol>
</defs>
</svg>
